<svg width="185" height="184" viewBox="0 0 185 184" fill="none" xmlns="http://www.w3.org/2000/svg">
<path d="M153.91 117.913C144.48 117.913 135.357 116.38 126.847 113.62C124.163 112.7 121.173 113.39 119.103 115.46L107.067 130.563C85.37 120.213 65.0533 100.663 54.2433 78.2L69.1933 65.4733C71.2633 63.3267 71.8767 60.3367 71.0333 57.6533C68.1967 49.1433 66.74 40.02 66.74 30.59C66.74 26.45 63.29 23 59.15 23H32.6233C28.4833 23 23.5 24.84 23.5 30.59C23.5 101.813 82.7633 161 153.91 161C159.353 161 161.5 156.17 161.5 151.953V125.503C161.5 121.363 158.05 117.913 153.91 117.913Z" fill="#1A1A1A"/>
</svg>
