<svg width="185" height="184" viewBox="0 0 185 184" fill="none" xmlns="http://www.w3.org/2000/svg">
<path d="M159.332 130.341C141.795 109.195 118.105 96.1707 92 96.1707C65.895 96.1707 42.205 109.195 24.6675 130.341C23.6325 131.659 23 133.488 23 135.537C23 137.585 23.6325 139.415 24.6675 140.732L38.9275 158.878C39.9625 160.195 41.4 161 43.01 161C44.5625 161 46 160.195 47.035 158.951C51.5775 153.537 56.7525 149 62.33 145.415C64.2275 144.244 65.55 141.756 65.55 138.829V116.146C73.8875 112.634 82.8 110.805 92 110.805C101.2 110.805 110.113 112.634 118.45 116.073V138.756C118.45 141.61 119.772 144.171 121.67 145.341C127.305 148.927 132.423 153.537 136.965 158.878C138 160.195 139.438 160.927 140.99 160.927C142.6 160.927 144.037 160.122 145.072 158.805L159.332 140.659C160.367 139.341 161 137.512 161 135.463C161 133.488 160.367 131.659 159.332 130.341ZM144.67 54.1707L136.562 43.8537L116.093 69.8293L124.2 80.1463C124.2 80.1463 144.037 54.3902 144.67 54.1707ZM97.75 23H86.25V59.5854H97.75V23ZM59.8 80.1463L67.9075 69.8293L47.495 43.7805L39.33 54.1707C39.9625 54.3902 59.8 80.1463 59.8 80.1463Z" fill="#1A1A1A"/>
</svg>
