<svg width="185" height="184" viewBox="0 0 185 184" fill="none" xmlns="http://www.w3.org/2000/svg">
<path d="M36.9183 136.647V131.371C36.9183 128.611 38.0318 126.013 39.7716 124.795C51.5325 116.596 64.9637 112.294 78.6732 112.294C78.882 112.294 79.0212 112.294 79.23 112.375C79.9259 106.693 81.3177 101.254 83.3359 96.3024C81.8048 96.14 80.2738 96.0588 78.6732 96.0588C61.8321 96.0588 46.1044 101.498 32.6732 110.833C26.5492 115.054 23 123.009 23 131.371V152.882H87.4418C84.5189 148.012 82.2224 142.492 80.6914 136.647H36.9183Z" fill="#1A1A1A"/>
<path d="M78.6732 87.9412C94.0529 87.9412 106.51 73.4106 106.51 55.4706C106.51 37.5306 94.0529 23 78.6732 23C63.2935 23 50.8366 37.5306 50.8366 55.4706C50.8366 73.4106 63.2935 87.9412 78.6732 87.9412ZM78.6732 39.2353C86.3283 39.2353 92.5915 46.5412 92.5915 55.4706C92.5915 64.4 86.3283 71.7059 78.6732 71.7059C71.0182 71.7059 64.7549 64.4 64.7549 55.4706C64.7549 46.5412 71.0182 39.2353 78.6732 39.2353Z" fill="#1A1A1A"/>
<path d="M153.484 120.412C153.484 118.626 153.275 117.002 153.067 115.298L161 107.099L154.041 93.0553L143.95 97.0329C141.723 94.8412 139.218 93.1365 136.434 91.9188L134.346 79.8235H120.428L118.34 91.9188C115.557 93.1365 113.051 94.8412 110.825 97.0329L100.734 93.0553L93.7746 107.099L101.708 115.298C101.499 117.002 101.29 118.626 101.29 120.412C101.29 122.198 101.499 123.821 101.708 125.526L93.7746 133.725L100.734 147.768L110.825 143.791C113.051 145.982 115.557 147.687 118.34 148.905L120.428 161H134.346L136.434 148.905C139.218 147.687 141.723 145.982 143.95 143.791L154.041 147.768L161 133.725L153.067 125.526C153.275 123.821 153.484 122.198 153.484 120.412ZM127.387 136.647C119.732 136.647 113.469 129.341 113.469 120.412C113.469 111.482 119.732 104.176 127.387 104.176C135.042 104.176 141.306 111.482 141.306 120.412C141.306 129.341 135.042 136.647 127.387 136.647Z" fill="#1A1A1A"/>
</svg>
