<?xml version="1.0" encoding="utf-8"?>
<svg viewBox="295.088 162.52 30.298 35.73" xmlns="http://www.w3.org/2000/svg">
  <g transform="matrix(1, 0, 0, 1, -40.232097, -96.871802)">
    <rect x="335.32" y="259.392" width="30.298" height="35.73" style="fill: rgba(216, 216, 216, 0);"/>
    <g id="g-4" transform="matrix(1, 0, 0, 1, 341.760315, 292.58197)">
      <g transform="matrix(1, 0, 0, 1, -6.353249, -30.72673)">
        <path style="stroke: rgb(80, 80, 80); fill: rgb(41, 192, 41);" d="M15,28.9c-1.6-3-8-9.4-9.9-13.5c-0.6-1.3-1-2.7-1-4.2C4.2,5.7,9.1,1.1,15,1.1s10.9,4.6,10.9,10.1 c0,1.5-0.4,2.9-1,4.2l0,0C23,19.5,16.6,25.9,15,28.9L15,28.9z"/>
      </g>
      <g transform="matrix(1, 0, 0, 1, -6.353249, -30.72673)">
        <path style="stroke-width: 2; stroke-linecap: round; stroke-miterlimit: 10; stroke: rgb(80, 80, 80); fill: rgb(41, 192, 41);" d="M5.1,15.4 c-0.6-1.3-1-2.7-1-4.2C4.2,5.7,9.1,1.1,15,1.1s10.9,4.6,10.9,10.1c0,1.5-0.4,2.9-1,4.2"/>
        <line style="stroke-width: 2; stroke-linecap: round; stroke-miterlimit: 10; stroke: rgb(80, 80, 80); fill: rgb(41, 192, 41);" x1="15.1" y1="28.9" x2="15.1" y2="28.9"/>
        <path style="stroke-width: 2; stroke-linecap: round; stroke-miterlimit: 10; stroke: rgb(80, 80, 80); fill: rgb(41, 192, 41);" d="M5.1,15.4 c1.9,4.1,8.3,10.5,9.9,13.5"/>
        <path style="stroke-width: 2; stroke-linecap: round; stroke-miterlimit: 10; stroke: rgb(80, 80, 80); fill: rgb(41, 192, 41);" d="M24.9,15.4 c-1.9,4.1-8.3,10.5-9.9,13.5h0v0"/>
      </g>
    </g>
  </g>
</svg>